{
  "accessors": [
    {
      "bufferView": 2,
      "componentType": 5126,
      "count": 576,
      "max": [
        130.8177032470703,
        -1.06756591796875,
        -212.1114044189453
      ],
      "min": [
        67.27560424804688,
        -57.346160888671875,
        -250.11061096191406
      ],
      "type": "VEC3"
    },
    {
      "bufferView": 2,
      "byteOffset": 6912,
      "componentType": 5126,
      "count": 576,
      "max": [
        0.9950331449508667,
        0.9838271141052246,
        0.9987040758132935
      ],
      "min": [
        -0.9781016707420349,
        -0.9928943514823914,
        -0.9547981023788452
      ],
      "type": "VEC3"
    },
    {
      "bufferView": 3,
      "componentType": 5126,
      "count": 576,
      "max": [
        0.0,
        0.0,
        0.0,
        0.0
      ],
      "min": [
        0.0,
        0.0,
        0.0,
        0.0
      ],
      "type": "VEC4"
    },
    {
      "bufferView": 1,
      "componentType": 5126,
      "count": 576,
      "max": [
        40.0,
        35.8125
      ],
      "min": [
        -0.5,
        -1.0625
      ],
      "type": "VEC2"
    },
    {
      "bufferView": 1,
      "byteOffset": 4608,
      "componentType": 5126,
      "count": 576,
      "max": [
        40.0,
        35.8125
      ],
      "min": [
        -0.5,
        -1.0625
      ],
      "type": "VEC2"
    },
    {
      "bufferView": 0,
      "componentType": 5125,
      "count": 576,
      "type": "SCALAR"
    },
    {
      "bufferView": 2,
      "byteOffset": 13824,
      "componentType": 5126,
      "count": 797,
      "max": [
        111.74154663085938,
        -12.360382080078125,
        -212.87857055664063
      ],
      "min": [
        86.80963134765625,
        -52.5186767578125,
        -237.4634246826172
      ],
      "type": "VEC3"
    },
    {
      "bufferView": 2,
      "byteOffset": 23388,
      "componentType": 5126,
      "count": 797,
      "max": [
        0.9975441694259644,
        0.9724855422973633,
        0.9971786141395569
      ],
      "min": [
        -0.9953650236129761,
        -0.9953510165214539,
        -0.9920339584350586
      ],
      "type": "VEC3"
    },
    {
      "bufferView": 3,
      "byteOffset": 9216,
      "componentType": 5126,
      "count": 797,
      "max": [
        1.0,
        1.0,
        1.0,
        1.0
      ],
      "min": [
        1.0,
        1.0,
        1.0,
        1.0
      ],
      "type": "VEC4"
    },
    {
      "bufferView": 1,
      "byteOffset": 9216,
      "componentType": 5126,
      "count": 797,
      "max": [
        1.4872820377349854,
        0.8456902503967285
      ],
      "min": [
        -0.13769321143627167,
        0.05859285593032837
      ],
      "type": "VEC2"
    },
    {
      "bufferView": 1,
      "byteOffset": 15592,
      "componentType": 5126,
      "count": 797,
      "max": [
        47.59375,
        27.0625
      ],
      "min": [
        -4.40625,
        1.875
      ],
      "type": "VEC2"
    },
    {
      "bufferView": 0,
      "byteOffset": 2304,
      "componentType": 5125,
      "count": 813,
      "type": "SCALAR"
    },
    {
      "bufferView": 2,
      "byteOffset": 32952,
      "componentType": 5126,
      "count": 567,
      "max": [
        119.73243713378906,
        30.328018188476563,
        -217.96401977539063
      ],
      "min": [
        77.93159484863281,
        -28.528915405273438,
        -267.80267333984375
      ],
      "type": "VEC3"
    },
    {
      "bufferView": 2,
      "byteOffset": 39756,
      "componentType": 5126,
      "count": 567,
      "max": [
        0.9825025200843811,
        0.9790560603141785,
        0.918526828289032
      ],
      "min": [
        -0.9999927282333374,
        -0.9896620512008667,
        -0.9963129758834839
      ],
      "type": "VEC3"
    },
    {
      "bufferView": 3,
      "byteOffset": 21968,
      "componentType": 5126,
      "count": 567,
      "max": [
        0.9921568632125854,
        0.9921568632125854,
        0.9921568632125854,
        0.0
      ],
      "min": [
        0.9921568632125854,
        0.9921568632125854,
        0.9921568632125854,
        0.0
      ],
      "type": "VEC4"
    },
    {
      "bufferView": 1,
      "byteOffset": 21968,
      "componentType": 5126,
      "count": 567,
      "max": [
        38.5625,
        33.125
      ],
      "min": [
        -8.5625,
        -1.0
      ],
      "type": "VEC2"
    },
    {
      "bufferView": 1,
      "byteOffset": 26504,
      "componentType": 5126,
      "count": 567,
      "max": [
        38.5625,
        33.125
      ],
      "min": [
        -8.5625,
        -1.0
      ],
      "type": "VEC2"
    },
    {
      "bufferView": 0,
      "byteOffset": 5556,
      "componentType": 5125,
      "count": 585,
      "type": "SCALAR"
    },
    {
      "bufferView": 2,
      "byteOffset": 46560,
      "componentType": 5126,
      "count": 254,
      "max": [
        113.66751098632813,
        19.360580444335938,
        -224.66555786132813
      ],
      "min": [
        79.79730224609375,
        -33.558807373046875,
        -260.478271484375
      ],
      "type": "VEC3"
    },
    {
      "bufferView": 2,
      "byteOffset": 49608,
      "componentType": 5126,
      "count": 254,
      "max": [
        0.9993975162506104,
        0.9783397316932678,
        0.9583621025085449
      ],
      "min": [
        -0.9865118861198425,
        -0.8996137976646423,
        -0.9924741983413696
      ],
      "type": "VEC3"
    },
    {
      "bufferView": 3,
      "byteOffset": 31040,
      "componentType": 5126,
      "count": 254,
      "max": [
        1.0,
        1.0,
        1.0,
        1.0
      ],
      "min": [
        1.0,
        1.0,
        1.0,
        1.0
      ],
      "type": "VEC4"
    },
    {
      "bufferView": 1,
      "byteOffset": 31040,
      "componentType": 5126,
      "count": 254,
      "max": [
        1.2939255237579346,
        0.9472512006759644
      ],
      "min": [
        -0.35839295387268066,
        0.0
      ],
      "type": "VEC2"
    },
    {
      "bufferView": 1,
      "byteOffset": 33072,
      "componentType": 5126,
      "count": 254,
      "max": [
        41.40625,
        30.3125
      ],
      "min": [
        -11.46875,
        0.0
      ],
      "type": "VEC2"
    },
    {
      "bufferView": 0,
      "byteOffset": 7896,
      "componentType": 5125,
      "count": 258,
      "type": "SCALAR"
    },
    {
      "bufferView": 2,
      "byteOffset": 52656,
      "componentType": 5126,
      "count": 24,
      "max": [
        110.4364013671875,
        1.5027008056640625,
        -230.95513916015625
      ],
      "min": [
        82.49969482421875,
        -13.093780517578125,
        -242.4656524658203
      ],
      "type": "VEC3"
    },
    {
      "bufferView": 2,
      "byteOffset": 52944,
      "componentType": 5126,
      "count": 24,
      "max": [
        0.9777569770812988,
        0.054297611117362976,
        -0.07570073008537292
      ],
      "min": [
        -0.9935095906257629,
        -0.24328741431236267,
        -0.3366943299770355
      ],
      "type": "VEC3"
    },
    {
      "bufferView": 3,
      "byteOffset": 35104,
      "componentType": 5126,
      "count": 24,
      "max": [
        1.0,
        1.0,
        1.0,
        0.0
      ],
      "min": [
        1.0,
        1.0,
        1.0,
        0.0
      ],
      "type": "VEC4"
    },
    {
      "bufferView": 1,
      "byteOffset": 35104,
      "componentType": 5126,
      "count": 24,
      "max": [
        38.1875,
        42.1875
      ],
      "min": [
        -2.8125,
        -2.625
      ],
      "type": "VEC2"
    },
    {
      "bufferView": 1,
      "byteOffset": 35296,
      "componentType": 5126,
      "count": 24,
      "max": [
        38.1875,
        42.1875
      ],
      "min": [
        -2.8125,
        -2.625
      ],
      "type": "VEC2"
    },
    {
      "bufferView": 0,
      "byteOffset": 8928,
      "componentType": 5125,
      "count": 24,
      "type": "SCALAR"
    }
  ],
  "asset": {
    "extras": {
      "author": "xdanni1984x (https://sketchfab.com/xdanni1984x)",
      "license": "CC-BY-4.0 (http://creativecommons.org/licenses/by/4.0/)",
      "source": "https://sketchfab.com/3d-models/m-sm64z64-d7332ba7973b4a2e89122ec7c1c857de",
      "title": "M SM64.z64"
    },
    "generator": "Sketchfab-16.74.0",
    "version": "2.0"
  },
  "bufferViews": [
    {
      "buffer": 0,
      "byteLength": 9024,
      "name": "floatBufferViews",
      "target": 34963
    },
    {
      "buffer": 0,
      "byteLength": 35488,
      "byteOffset": 9024,
      "byteStride": 8,
      "name": "floatBufferViews",
      "target": 34962
    },
    {
      "buffer": 0,
      "byteLength": 53232,
      "byteOffset": 44512,
      "byteStride": 12,
      "name": "floatBufferViews",
      "target": 34962
    },
    {
      "buffer": 0,
      "byteLength": 35488,
      "byteOffset": 97744,
      "byteStride": 16,
      "name": "floatBufferViews",
      "target": 34962
    }
  ],
  "buffers": [
    {
      "byteLength": 133232,
      "uri": "scene.bin"
    }
  ],
  "images": [
    {
      "uri": "textures/N64_Shader_ac81a50c6dd67f25_baseColor.png"
    }
  ],
  "materials": [
    {
      "doubleSided": true,
      "name": "N64_Shader_e7623afe1098a2ec",
      "pbrMetallicRoughness": {
        "metallicFactor": 0.0,
        "roughnessFactor": 0.9
      }
    },
    {
      "doubleSided": true,
      "name": "N64_Shader_ac81a50c6dd67f25",
      "pbrMetallicRoughness": {
        "baseColorTexture": {
          "index": 0
        },
        "metallicFactor": 0.0,
        "roughnessFactor": 0.9
      }
    },
    {
      "doubleSided": true,
      "name": "N64_Shader_e96c18cfc1f61a9c",
      "pbrMetallicRoughness": {
        "metallicFactor": 0.0,
        "roughnessFactor": 0.9
      }
    },
    {
      "doubleSided": true,
      "name": "N64_Shader_7110ba6b96a97481",
      "pbrMetallicRoughness": {
        "baseColorTexture": {
          "index": 1
        },
        "metallicFactor": 0.0,
        "roughnessFactor": 0.9
      }
    }
  ],
  "meshes": [
    {
      "name": "Object_0",
      "primitives": [
        {
          "attributes": {
            "COLOR_0": 2,
            "NORMAL": 1,
            "POSITION": 0,
            "TEXCOORD_0": 3,
            "TEXCOORD_1": 4
          },
          "indices": 5,
          "material": 0,
          "mode": 4
        }
      ]
    },
    {
      "name": "Object_1",
      "primitives": [
        {
          "attributes": {
            "COLOR_0": 8,
            "NORMAL": 7,
            "POSITION": 6,
            "TEXCOORD_0": 9,
            "TEXCOORD_1": 10
          },
          "indices": 11,
          "material": 1,
          "mode": 4
        }
      ]
    },
    {
      "name": "Object_2",
      "primitives": [
        {
          "attributes": {
            "COLOR_0": 14,
            "NORMAL": 13,
            "POSITION": 12,
            "TEXCOORD_0": 15,
            "TEXCOORD_1": 16
          },
          "indices": 17,
          "material": 2,
          "mode": 4
        }
      ]
    },
    {
      "name": "Object_3",
      "primitives": [
        {
          "attributes": {
            "COLOR_0": 20,
            "NORMAL": 19,
            "POSITION": 18,
            "TEXCOORD_0": 21,
            "TEXCOORD_1": 22
          },
          "indices": 23,
          "material": 3,
          "mode": 4
        }
      ]
    },
    {
      "name": "Object_4",
      "primitives": [
        {
          "attributes": {
            "COLOR_0": 26,
            "NORMAL": 25,
            "POSITION": 24,
            "TEXCOORD_0": 27,
            "TEXCOORD_1": 28
          },
          "indices": 29,
          "material": 0,
          "mode": 4
        }
      ]
    }
  ],
  "nodes": [
    {
      "children": [
        1
      ],
      "matrix": [
        1.0,
        0.0,
        0.0,
        0.0,
        0.0,
        2.220446049250313e-16,
        -1.0,
        0.0,
        0.0,
        1.0,
        2.220446049250313e-16,
        0.0,
        0.0,
        0.0,
        0.0,
        1.0
      ],
      "name": "Sketchfab_model"
    },
    {
      "children": [
        2
      ],
      "name": "root"
    },
    {
      "children": [
        3,
        5,
        7,
        9,
        11
      ],
      "matrix": [
        1.0,
        0.0,
        0.0,
        0.0,
        0.0,
        2.220446049250313e-16,
        1.0,
        0.0,
        0.0,
        -1.0,
        2.220446049250313e-16,
        0.0,
        0.0,
        0.0,
        0.0,
        1.0
      ],
      "name": "GLTF_SceneRootNode"
    },
    {
      "children": [
        4
      ],
      "matrix": [
        -0.6242539310575466,
        0.0,
        -0.008399249454384337,
        0.0,
        0.0,
        0.6243104338645935,
        0.0,
        0.0,
        0.008399249454384337,
        0.0,
        -0.6242539310575466,
        0.0,
        62.98292541503906,
        31.835535049438477,
        -140.95773315429688,
        1.0
      ],
      "name": "MARIO   64 (n64_scene.5).010_0"
    },
    {
      "mesh": 0,
      "name": "Object_4"
    },
    {
      "children": [
        6
      ],
      "matrix": [
        -0.6242539310575466,
        0.0,
        -0.008399249454384337,
        0.0,
        0.0,
        0.6243104338645935,
        0.0,
        0.0,
        0.008399249454384337,
        0.0,
        -0.6242539310575466,
        0.0,
        62.98292541503906,
        31.835535049438477,
        -140.95773315429688,
        1.0
      ],
      "name": "MARIO   64 (n64_scene.5).016_1"
    },
    {
      "mesh": 1,
      "name": "Object_6"
    },
    {
      "children": [
        8
      ],
      "matrix": [
        -0.6242539310575466,
        0.0,
        -0.008399249454384337,
        0.0,
        0.0,
        0.6243104338645935,
        0.0,
        0.0,
        0.008399249454384337,
        0.0,
        -0.6242539310575466,
        0.0,
        62.98292541503906,
        31.835535049438477,
        -140.95773315429688,
        1.0
      ],
      "name": "MARIO   64 (n64_scene.5).017_2"
    },
    {
      "mesh": 2,
      "name": "Object_8"
    },
    {
      "children": [
        10
      ],
      "matrix": [
        -0.6242539310575466,
        0.0,
        -0.008399249454384337,
        0.0,
        0.0,
        0.6243104338645935,
        0.0,
        0.0,
        0.008399249454384337,
        0.0,
        -0.6242539310575466,
        0.0,
        62.98292541503906,
        31.835535049438477,
        -140.95773315429688,
        1.0
      ],
      "name": "MARIO   64 (n64_scene.5).018_3"
    },
    {
      "mesh": 3,
      "name": "Object_10"
    },
    {
      "children": [
        12
      ],
      "matrix": [
        -0.6242539310575466,
        0.0,
        -0.008399249454384337,
        0.0,
        0.0,
        0.6243104338645935,
        0.0,
        0.0,
        0.008399249454384337,
        0.0,
        -0.6242539310575466,
        0.0,
        62.98292541503906,
        31.835535049438477,
        -140.95773315429688,
        1.0
      ],
      "name": "MARIO   64 (n64_scene.5).019_4"
    },
    {
      "mesh": 4,
      "name": "Object_12"
    }
  ],
  "samplers": [
    {
      "magFilter": 9729,
      "minFilter": 9987,
      "wrapS": 10497,
      "wrapT": 10497
    },
    {
      "magFilter": 9729,
      "minFilter": 9987,
      "wrapS": 33071,
      "wrapT": 33071
    }
  ],
  "scene": 0,
  "scenes": [
    {
      "name": "Sketchfab_Scene",
      "nodes": [
        0
      ]
    }
  ],
  "textures": [
    {
      "sampler": 0,
      "source": 0
    },
    {
      "sampler": 1,
      "source": 0
    }
  ]
}
