{
  "accessors": [
    {
      "bufferView": 2,
      "componentType": 5126,
      "count": 65532,
      "max": [
        0.9270579814910889,
        1.9947229623794556,
        5.014278888702393
      ],
      "min": [
        -0.9873549938201904,
        -1.4832719564437866,
        -0.1322699934244156
      ],
      "type": "VEC3"
    },
    {
      "bufferView": 2,
      "byteOffset": 786384,
      "componentType": 5126,
      "count": 65532,
      "max": [
        0.9999713897705078,
        0.9999985694885254,
        0.9999806880950928
      ],
      "min": [
        -0.9999933242797852,
        -0.9999649524688721,
        -0.9996669888496399
      ],
      "type": "VEC3"
    },
    {
      "bufferView": 1,
      "componentType": 5126,
      "count": 65532,
      "max": [
        0.9993950128555298,
        0.9813380241394043
      ],
      "min": [
        0.0005779999773949385,
        0.0005750000127591193
      ],
      "type": "VEC2"
    },
    {
      "bufferView": 0,
      "componentType": 5125,
      "count": 159447,
      "type": "SCALAR"
    },
    {
      "bufferView": 2,
      "byteOffset": 1572768,
      "componentType": 5126,
      "count": 65532,
      "max": [
        0.7392380237579346,
        1.8256460428237915,
        5.004056930541992
      ],
      "min": [
        -0.8915169835090637,
        -1.4826350212097168,
        2.4607789516448975
      ],
      "type": "VEC3"
    },
    {
      "bufferView": 2,
      "byteOffset": 2359152,
      "componentType": 5126,
      "count": 65532,
      "max": [
        0.9999874830245972,
        0.9999889135360718,
        0.9999430179595947
      ],
      "min": [
        -0.9999923706054688,
        -0.9999736547470093,
        -0.9999434947967529
      ],
      "type": "VEC3"
    },
    {
      "bufferView": 1,
      "byteOffset": 524256,
      "componentType": 5126,
      "count": 65532,
      "max": [
        0.9994189739227295,
        0.9930819869041443
      ],
      "min": [
        0.0005879999953322113,
        0.0005740000051446259
      ],
      "type": "VEC2"
    },
    {
      "bufferView": 0,
      "byteOffset": 637788,
      "componentType": 5125,
      "count": 151983,
      "type": "SCALAR"
    },
    {
      "bufferView": 2,
      "byteOffset": 3145536,
      "componentType": 5126,
      "count": 65532,
      "max": [
        0.767350971698761,
        1.8363499641418457,
        6.755680084228516
      ],
      "min": [
        -0.9266660213470459,
        -1.190039038658142,
        2.3717598915100098
      ],
      "type": "VEC3"
    },
    {
      "bufferView": 2,
      "byteOffset": 3931920,
      "componentType": 5126,
      "count": 65532,
      "max": [
        0.9999983310699463,
        0.9994038343429565,
        0.999230146408081
      ],
      "min": [
        -0.9999903440475464,
        -0.9999922513961792,
        -0.9999688863754272
      ],
      "type": "VEC3"
    },
    {
      "bufferView": 1,
      "byteOffset": 1048512,
      "componentType": 5126,
      "count": 65532,
      "max": [
        0.9993900060653687,
        0.9843360185623169
      ],
      "min": [
        0.0006040000007487833,
        0.0005740000051446259
      ],
      "type": "VEC2"
    },
    {
      "bufferView": 0,
      "byteOffset": 1245720,
      "componentType": 5125,
      "count": 155853,
      "type": "SCALAR"
    },
    {
      "bufferView": 2,
      "byteOffset": 4718304,
      "componentType": 5126,
      "count": 65532,
      "max": [
        1.1354789733886719,
        2.115535020828247,
        6.759817123413086
      ],
      "min": [
        -0.8748229742050171,
        -0.5088620185852051,
        3.6901450157165527
      ],
      "type": "VEC3"
    },
    {
      "bufferView": 2,
      "byteOffset": 5504688,
      "componentType": 5126,
      "count": 65532,
      "max": [
        0.9998891353607178,
        0.9994277954101563,
        0.9999374151229858
      ],
      "min": [
        -0.9998268485069275,
        -0.9997895359992981,
        -0.9998610019683838
      ],
      "type": "VEC3"
    },
    {
      "bufferView": 1,
      "byteOffset": 1572768,
      "componentType": 5126,
      "count": 65532,
      "max": [
        0.9994109869003296,
        0.9763339757919312
      ],
      "min": [
        0.0005729999975301325,
        0.0005750000127591193
      ],
      "type": "VEC2"
    },
    {
      "bufferView": 0,
      "byteOffset": 1869132,
      "componentType": 5125,
      "count": 144033,
      "type": "SCALAR"
    },
    {
      "bufferView": 2,
      "byteOffset": 6291072,
      "componentType": 5126,
      "count": 65532,
      "max": [
        1.1641279458999634,
        2.2960240840911865,
        4.981629848480225
      ],
      "min": [
        -0.6180539727210999,
        0.12487000226974487,
        3.2313389778137207
      ],
      "type": "VEC3"
    },
    {
      "bufferView": 2,
      "byteOffset": 7077456,
      "componentType": 5126,
      "count": 65532,
      "max": [
        0.9999899864196777,
        0.9999966621398926,
        0.9994722008705139
      ],
      "min": [
        -0.9996538758277893,
        -0.9999856948852539,
        -0.9996365904808044
      ],
      "type": "VEC3"
    },
    {
      "bufferView": 1,
      "byteOffset": 2097024,
      "componentType": 5126,
      "count": 65532,
      "max": [
        0.9994080066680908,
        0.9681100249290466
      ],
      "min": [
        0.0005779999773949385,
        0.0005740000051446259
      ],
      "type": "VEC2"
    },
    {
      "bufferView": 0,
      "byteOffset": 2445264,
      "componentType": 5125,
      "count": 147090,
      "type": "SCALAR"
    },
    {
      "bufferView": 2,
      "byteOffset": 7863840,
      "componentType": 5126,
      "count": 65533,
      "max": [
        1.1584190130233765,
        2.0856618881225586,
        6.782674789428711
      ],
      "min": [
        -0.9377040266990662,
        -1.1965670585632324,
        3.7081398963928223
      ],
      "type": "VEC3"
    },
    {
      "bufferView": 2,
      "byteOffset": 8650236,
      "componentType": 5126,
      "count": 65533,
      "max": [
        0.9998906850814819,
        0.9999871253967285,
        0.9998143315315247
      ],
      "min": [
        -0.9999986886978149,
        -0.9999798536300659,
        -0.9996502995491028
      ],
      "type": "VEC3"
    },
    {
      "bufferView": 1,
      "byteOffset": 2621280,
      "componentType": 5126,
      "count": 65533,
      "max": [
        0.9994069933891296,
        0.9746419787406921
      ],
      "min": [
        0.0005799999926239252,
        0.0005740000051446259
      ],
      "type": "VEC2"
    },
    {
      "bufferView": 0,
      "byteOffset": 3033624,
      "componentType": 5125,
      "count": 147318,
      "type": "SCALAR"
    },
    {
      "bufferView": 2,
      "byteOffset": 9436632,
      "componentType": 5126,
      "count": 65532,
      "max": [
        1.2128609418869019,
        2.0619049072265625,
        6.737067222595215
      ],
      "min": [
        -0.9129080176353455,
        -1.3527389764785767,
        2.456623077392578
      ],
      "type": "VEC3"
    },
    {
      "bufferView": 2,
      "byteOffset": 10223016,
      "componentType": 5126,
      "count": 65532,
      "max": [
        0.9999747276306152,
        0.9999891519546509,
        0.9893749952316284
      ],
      "min": [
        -0.9999908208847046,
        -0.9999737739562988,
        -0.9990904927253723
      ],
      "type": "VEC3"
    },
    {
      "bufferView": 1,
      "byteOffset": 3145544,
      "componentType": 5126,
      "count": 65532,
      "max": [
        0.9994109869003296,
        0.9925010204315186
      ],
      "min": [
        0.0005760000203736126,
        0.0005760000203736126
      ],
      "type": "VEC2"
    },
    {
      "bufferView": 0,
      "byteOffset": 3622896,
      "componentType": 5125,
      "count": 152757,
      "type": "SCALAR"
    },
    {
      "bufferView": 2,
      "byteOffset": 11009400,
      "componentType": 5126,
      "count": 65532,
      "max": [
        0.6658350229263306,
        2.1072230339050293,
        4.985951900482178
      ],
      "min": [
        -0.9497659802436829,
        0.12469399720430374,
        2.5199620723724365
      ],
      "type": "VEC3"
    },
    {
      "bufferView": 2,
      "byteOffset": 11795784,
      "componentType": 5126,
      "count": 65532,
      "max": [
        0.9999432563781738,
        0.9999970197677612,
        0.9791803956031799
      ],
      "min": [
        -0.9999874830245972,
        -0.9999939203262329,
        -0.9999556541442871
      ],
      "type": "VEC3"
    },
    {
      "bufferView": 1,
      "byteOffset": 3669800,
      "componentType": 5126,
      "count": 65532,
      "max": [
        0.9993270039558411,
        0.9994189739227295
      ],
      "min": [
        0.0008769999840296805,
        0.0005810000002384186
      ],
      "type": "VEC2"
    },
    {
      "bufferView": 0,
      "byteOffset": 4233924,
      "componentType": 5125,
      "count": 160215,
      "type": "SCALAR"
    },
    {
      "bufferView": 2,
      "byteOffset": 12582168,
      "componentType": 5126,
      "count": 65532,
      "max": [
        0.9260349869728088,
        2.1034109592437744,
        4.978219985961914
      ],
      "min": [
        -1.065276026725769,
        -1.028337001800537,
        -0.13934899866580963
      ],
      "type": "VEC3"
    },
    {
      "bufferView": 2,
      "byteOffset": 13368552,
      "componentType": 5126,
      "count": 65532,
      "max": [
        0.9999967813491821,
        0.9996041655540466,
        0.9999967813491821
      ],
      "min": [
        -0.9999730587005615,
        -0.9999896287918091,
        -0.9981666803359985
      ],
      "type": "VEC3"
    },
    {
      "bufferView": 1,
      "byteOffset": 4194056,
      "componentType": 5126,
      "count": 65532,
      "max": [
        0.999405026435852,
        0.9984890222549438
      ],
      "min": [
        0.0005799999926239252,
        0.0005760000203736126
      ],
      "type": "VEC2"
    },
    {
      "bufferView": 0,
      "byteOffset": 4874784,
      "componentType": 5125,
      "count": 152301,
      "type": "SCALAR"
    },
    {
      "bufferView": 2,
      "byteOffset": 14154936,
      "componentType": 5126,
      "count": 65532,
      "max": [
        0.8469669818878174,
        1.808292031288147,
        4.303339004516602
      ],
      "min": [
        -1.0153679847717285,
        -0.6495720148086548,
        0.2506749927997589
      ],
      "type": "VEC3"
    },
    {
      "bufferView": 2,
      "byteOffset": 14941320,
      "componentType": 5126,
      "count": 65532,
      "max": [
        0.9999746084213257,
        0.9944649934768677,
        0.9556270241737366
      ],
      "min": [
        -0.9999690055847168,
        -0.9999988079071045,
        -0.9530059099197388
      ],
      "type": "VEC3"
    },
    {
      "bufferView": 1,
      "byteOffset": 4718312,
      "componentType": 5126,
      "count": 65532,
      "max": [
        0.9994189739227295,
        0.9932680130004883
      ],
      "min": [
        0.0005779999773949385,
        0.0005729999975301325
      ],
      "type": "VEC2"
    },
    {
      "bufferView": 0,
      "byteOffset": 5483988,
      "componentType": 5125,
      "count": 156372,
      "type": "SCALAR"
    },
    {
      "bufferView": 2,
      "byteOffset": 15727704,
      "componentType": 5126,
      "count": 65532,
      "max": [
        0.9304530024528503,
        1.8105690479278564,
        4.2924089431762695
      ],
      "min": [
        -0.9958670139312744,
        -0.6451050043106079,
        -0.13201400637626648
      ],
      "type": "VEC3"
    },
    {
      "bufferView": 2,
      "byteOffset": 16514088,
      "componentType": 5126,
      "count": 65532,
      "max": [
        0.9999943971633911,
        0.9999982118606567,
        0.9999809265136719
      ],
      "min": [
        -0.9999734163284302,
        -0.9990545511245728,
        -0.9999731779098511
      ],
      "type": "VEC3"
    },
    {
      "bufferView": 1,
      "byteOffset": 5242568,
      "componentType": 5126,
      "count": 65532,
      "max": [
        0.9994000196456909,
        0.9791430234909058
      ],
      "min": [
        0.0005750000127591193,
        0.0005729999975301325
      ],
      "type": "VEC2"
    },
    {
      "bufferView": 0,
      "byteOffset": 6109476,
      "componentType": 5125,
      "count": 147783,
      "type": "SCALAR"
    },
    {
      "bufferView": 2,
      "byteOffset": 17300472,
      "componentType": 5126,
      "count": 315,
      "max": [
        0.5860959887504578,
        1.2996530532836914,
        0.4721199870109558
      ],
      "min": [
        -0.9099090099334717,
        0.8752139806747437,
        -0.12873399257659912
      ],
      "type": "VEC3"
    },
    {
      "bufferView": 2,
      "byteOffset": 17304252,
      "componentType": 5126,
      "count": 315,
      "max": [
        0.8541138172149658,
        0.9991422891616821,
        0.9836191534996033
      ],
      "min": [
        -0.9999955892562866,
        -0.15619252622127533,
        -0.701083779335022
      ],
      "type": "VEC3"
    },
    {
      "bufferView": 1,
      "byteOffset": 5766824,
      "componentType": 5126,
      "count": 315,
      "max": [
        0.7959520220756531,
        0.9147109985351563
      ],
      "min": [
        0.01396699994802475,
        0.01581300050020218
      ],
      "type": "VEC2"
    },
    {
      "bufferView": 0,
      "byteOffset": 6700608,
      "componentType": 5125,
      "count": 456,
      "type": "SCALAR"
    },
    {
      "bufferView": 2,
      "byteOffset": 17308032,
      "componentType": 5126,
      "count": 1561,
      "max": [
        0.9201149940490723,
        1.298050045967102,
        -0.10590100288391113
      ],
      "min": [
        -1.0651500225067139,
        -0.8463370203971863,
        -0.13934999704360962
      ],
      "type": "VEC3"
    },
    {
      "bufferView": 2,
      "byteOffset": 17326764,
      "componentType": 5126,
      "count": 1561,
      "max": [
        0.18989872932434082,
        0.006200307514518499,
        -0.9817934632301331
      ],
      "min": [
        -0.11019955575466156,
        0.0020999398548156023,
        -0.99998939037323
      ],
      "type": "VEC3"
    },
    {
      "bufferView": 1,
      "byteOffset": 5769344,
      "componentType": 5126,
      "count": 1561,
      "max": [
        0.5080050230026245,
        0.88611900806427
      ],
      "min": [
        0.4825280010700226,
        0.862529993057251
      ],
      "type": "VEC2"
    },
    {
      "bufferView": 0,
      "byteOffset": 6702432,
      "componentType": 5125,
      "count": 1830,
      "type": "SCALAR"
    }
  ],
  "asset": {
    "extras": {
      "author": "noe-3d.at (https://sketchfab.com/www.noe-3d.at)",
      "license": "CC-BY-NC-4.0 (http://creativecommons.org/licenses/by-nc/4.0/)",
      "source": "https://sketchfab.com/3d-models/hl-elisabeth-4cc6800859b440678b05f6675a02a3d3",
      "title": "Hl. Elisabeth"
    },
    "generator": "Sketchfab-16.74.0",
    "version": "2.0"
  },
  "bufferViews": [
    {
      "buffer": 0,
      "byteLength": 6709752,
      "name": "floatBufferViews",
      "target": 34963
    },
    {
      "buffer": 0,
      "byteLength": 5781832,
      "byteOffset": 6709752,
      "byteStride": 8,
      "name": "floatBufferViews",
      "target": 34962
    },
    {
      "buffer": 0,
      "byteLength": 17345496,
      "byteOffset": 12491584,
      "byteStride": 12,
      "name": "floatBufferViews",
      "target": 34962
    }
  ],
  "buffers": [
    {
      "byteLength": 29837080,
      "uri": "scene.bin"
    }
  ],
  "extensionsUsed": [
    "KHR_materials_specular"
  ],
  "images": [
    {
      "uri": "textures/Elisabeth_O.001_baseColor.png"
    }
  ],
  "materials": [
    {
      "doubleSided": true,
      "extensions": {
        "KHR_materials_specular": {
          "specularColorFactor": [
            1.0,
            1.0,
            1.0
          ],
          "specularFactor": 0.0
        }
      },
      "name": "Elisabeth_O.001",
      "pbrMetallicRoughness": {
        "baseColorTexture": {
          "index": 0
        },
        "metallicFactor": 0.0
      }
    },
    {
      "doubleSided": true,
      "extensions": {
        "KHR_materials_specular": {
          "specularColorFactor": [
            1.0,
            1.0,
            1.0
          ],
          "specularFactor": 0.0
        }
      },
      "name": "bottom",
      "pbrMetallicRoughness": {
        "baseColorFactor": [
          0.2953043464009595,
          0.2953043464009595,
          0.2953043464009595,
          1.0
        ],
        "metallicFactor": 0.0
      }
    }
  ],
  "meshes": [
    {
      "name": "Object_0",
      "primitives": [
        {
          "attributes": {
            "NORMAL": 1,
            "POSITION": 0,
            "TEXCOORD_0": 2
          },
          "indices": 3,
          "material": 0,
          "mode": 4
        }
      ]
    },
    {
      "name": "Object_1",
      "primitives": [
        {
          "attributes": {
            "NORMAL": 5,
            "POSITION": 4,
            "TEXCOORD_0": 6
          },
          "indices": 7,
          "material": 0,
          "mode": 4
        }
      ]
    },
    {
      "name": "Object_2",
      "primitives": [
        {
          "attributes": {
            "NORMAL": 9,
            "POSITION": 8,
            "TEXCOORD_0": 10
          },
          "indices": 11,
          "material": 0,
          "mode": 4
        }
      ]
    },
    {
      "name": "Object_3",
      "primitives": [
        {
          "attributes": {
            "NORMAL": 13,
            "POSITION": 12,
            "TEXCOORD_0": 14
          },
          "indices": 15,
          "material": 0,
          "mode": 4
        }
      ]
    },
    {
      "name": "Object_4",
      "primitives": [
        {
          "attributes": {
            "NORMAL": 17,
            "POSITION": 16,
            "TEXCOORD_0": 18
          },
          "indices": 19,
          "material": 0,
          "mode": 4
        }
      ]
    },
    {
      "name": "Object_5",
      "primitives": [
        {
          "attributes": {
            "NORMAL": 21,
            "POSITION": 20,
            "TEXCOORD_0": 22
          },
          "indices": 23,
          "material": 0,
          "mode": 4
        }
      ]
    },
    {
      "name": "Object_6",
      "primitives": [
        {
          "attributes": {
            "NORMAL": 25,
            "POSITION": 24,
            "TEXCOORD_0": 26
          },
          "indices": 27,
          "material": 0,
          "mode": 4
        }
      ]
    },
    {
      "name": "Object_7",
      "primitives": [
        {
          "attributes": {
            "NORMAL": 29,
            "POSITION": 28,
            "TEXCOORD_0": 30
          },
          "indices": 31,
          "material": 0,
          "mode": 4
        }
      ]
    },
    {
      "name": "Object_8",
      "primitives": [
        {
          "attributes": {
            "NORMAL": 33,
            "POSITION": 32,
            "TEXCOORD_0": 34
          },
          "indices": 35,
          "material": 0,
          "mode": 4
        }
      ]
    },
    {
      "name": "Object_9",
      "primitives": [
        {
          "attributes": {
            "NORMAL": 37,
            "POSITION": 36,
            "TEXCOORD_0": 38
          },
          "indices": 39,
          "material": 0,
          "mode": 4
        }
      ]
    },
    {
      "name": "Object_10",
      "primitives": [
        {
          "attributes": {
            "NORMAL": 41,
            "POSITION": 40,
            "TEXCOORD_0": 42
          },
          "indices": 43,
          "material": 0,
          "mode": 4
        }
      ]
    },
    {
      "name": "Object_11",
      "primitives": [
        {
          "attributes": {
            "NORMAL": 45,
            "POSITION": 44,
            "TEXCOORD_0": 46
          },
          "indices": 47,
          "material": 0,
          "mode": 4
        }
      ]
    },
    {
      "name": "Object_12",
      "primitives": [
        {
          "attributes": {
            "NORMAL": 49,
            "POSITION": 48,
            "TEXCOORD_0": 50
          },
          "indices": 51,
          "material": 1,
          "mode": 4
        }
      ]
    }
  ],
  "nodes": [
    {
      "children": [
        1
      ],
      "matrix": [
        -0.0008243768173138433,
        -0.0028836136309413115,
        0.2738973166213299,
        0.0,
        0.2739095941728209,
        -0.0012721904824383736,
        0.0008110199928222647,
        0.0,
        0.0012635761963938896,
        0.2738956023355499,
        0.002887398580065986,
        0.0,
        0.0,
        0.0,
        0.0,
        1.0
      ],
      "name": "Sketchfab_model"
    },
    {
      "children": [
        2,
        3,
        4,
        5,
        6,
        7,
        8,
        9,
        10,
        11,
        12,
        13,
        14
      ],
      "name": "Elisabeth_C.obj.cleaner.materialmerger.gles"
    },
    {
      "mesh": 0,
      "name": "Object_2"
    },
    {
      "mesh": 1,
      "name": "Object_3"
    },
    {
      "mesh": 2,
      "name": "Object_4"
    },
    {
      "mesh": 3,
      "name": "Object_5"
    },
    {
      "mesh": 4,
      "name": "Object_6"
    },
    {
      "mesh": 5,
      "name": "Object_7"
    },
    {
      "mesh": 6,
      "name": "Object_8"
    },
    {
      "mesh": 7,
      "name": "Object_9"
    },
    {
      "mesh": 8,
      "name": "Object_10"
    },
    {
      "mesh": 9,
      "name": "Object_11"
    },
    {
      "mesh": 10,
      "name": "Object_12"
    },
    {
      "mesh": 11,
      "name": "Object_13"
    },
    {
      "mesh": 12,
      "name": "Object_14"
    }
  ],
  "samplers": [
    {
      "magFilter": 9729,
      "minFilter": 9987,
      "wrapS": 10497,
      "wrapT": 10497
    }
  ],
  "scene": 0,
  "scenes": [
    {
      "name": "Sketchfab_Scene",
      "nodes": [
        0
      ]
    }
  ],
  "textures": [
    {
      "sampler": 0,
      "source": 0
    }
  ]
}
